# xmcd CD database file generated by Grip 3.3.1
# 
# Track frame offsets:
#       150
#       5319
#       12395
#       17715
#       25556
#       29653
#       36234
#       42828
#       48713
#       55719
#       61324
#       66913
#       73860
#       79197
#       84146
#       89653
#       95319
#       100455
#       105617
#       109571
#       113606
#       117675
#       122178
#       133449
#       138894
#       145809
#       152554
#       159822
#       161709
#       163599
#       165493
#       167398
#       169329
#       171303
#       181679
#       183647
#       185620
#       187560
#       189509
#       191532
#       193556
#       195565
#       197649
#       199502
#       201324
#       207594
#       209499
#       211242
#       216141
#       220393
#       226452
# 
# Disc length: 3103 seconds
# 
# Revision: 1
# Processed by: cddbd v1.5.2PL0 Copyright (c) Steve Scherf et al.
# Submitted via: Grip 3.3.1
# 
DISCID=da0c1d33
DTITLE=Larry McCabe - Complete Rhythm Guitar for Blues Bands
DYEAR=2004
DGENRE=Blues
TTITLE0=Turquoise Rock
TTITLE1=Bread Truck Blues
TTITLE2=Saint Charles' Place
TTITLE3=Blues in the Shadows
TTITLE4=Double or Nothin'
TTITLE5=Hen House Blues
TTITLE6=Hen House Blues No. 2
TTITLE7=Broke Down in a Strange Town
TTITLE8=Blues for Joe Louis
TTITLE9=Jazzin' the Blues
TTITLE10=Blue Rooster
TTITLE11=Motor City
TTITLE12=Chattanooga Boogalooga
TTITLE13=Bessie and Billie
TTITLE14=Trouble Up in Clarksdale
TTITLE15=Witch Doctor Blues
TTITLE16=Stompin' the Boogie No. 1
TTITLE17=Stompin' the Boogie No. 2
TTITLE18=Howling in Helena No. 1
TTITLE19=Howling in Helena No. 2
TTITLE20=Howling in Helena No. 3
TTITLE21=Howling in Helena No. 4
TTITLE22=Shake Down in Stovall
TTITLE23=Midnight in Memphis
TTITLE24=Blues on the Boardwalk
TTITLE25='Lectric Bill Blues
TTITLE26=Threestep in Bb
TTITLE27=Modular Intro and Turnaround No. 1
TTITLE28=Modular Intro and Turnaround No. 2
TTITLE29=Modular Intro and Turnaround No. 3
TTITLE30=Modular Intro and Turnaround No. 4
TTITLE31=Modular Intro and Turnaround No. 5
TTITLE32=Modular Intro and Turnaround No. 6
TTITLE33=Blues in the Briar Patch
TTITLE34=Modular Intro and Turnaround No. 7
TTITLE35=Modular Intro and Turnaround No. 8
TTITLE36=Modular Intro and Turnaround No. 9
TTITLE37=Modular Intro and Turnaround No. 10
TTITLE38=Four Modular Endings No. 1
TTITLE39=Four Modular Endings No. 2
TTITLE40=Four Modular Endings No. 3
TTITLE41=Four Modular Endings No. 4
TTITLE42=Four More Standard Endings No. 1
TTITLE43=Four More Standard Endings No. 2
TTITLE44=Scratchin' the Strings
TTITLE45=Four More Standard Endings No. 3
TTITLE46=Four More Standard Endings No. 4
TTITLE47=Shufflin' in Dixie
TTITLE48=Jumpin' All Over the Rainbow
TTITLE49=Shimmy Shakin' Blondie
TTITLE50=Hound Dog Boogie
EXTD=YEAR: 2004
EXTT0=
EXTT1=
EXTT2=
EXTT3=
EXTT4=
EXTT5=
EXTT6=
EXTT7=
EXTT8=
EXTT9=
EXTT10=
EXTT11=
EXTT12=
EXTT13=
EXTT14=
EXTT15=
EXTT16=
EXTT17=
EXTT18=
EXTT19=
EXTT20=
EXTT21=
EXTT22=
EXTT23=
EXTT24=
EXTT25=
EXTT26=
EXTT27=
EXTT28=
EXTT29=
EXTT30=
EXTT31=
EXTT32=
EXTT33=
EXTT34=
EXTT35=
EXTT36=
EXTT37=
EXTT38=
EXTT39=
EXTT40=
EXTT41=
EXTT42=
EXTT43=
EXTT44=
EXTT45=
EXTT46=
EXTT47=
EXTT48=
EXTT49=
EXTT50=
PLAYORDER=
